<?xml version="1.0" encoding="UTF-8"?>
<svg id="Layer_2" data-name="Layer 2" xmlns="http://www.w3.org/2000/svg" viewBox="0 0 2041.12 1042.26">
  <g id="Layer_1-2" data-name="Layer 1">
    <g>
      <path d="M1466.18,959.79v-105.33c9.19-9.17,25.59-2.82,37.57-4.58v184.7c-6.14,7.26-30.21,6.46-36.34,1.75l-90.83-113.18v105.33c0,13.94-35.88,16.85-37.49-.09l2.63-177.18,33.57,1.56c29.73,31.71,52.91,70.49,82.27,102.38,2.77,3.01,3.77,5.74,8.62,4.64Z"/>
      <path d="M535.14,1002.94l2.88,32.73c-48.14,17.88-67.14-21.37-80.4-62.27l-38.64-1.53c-9.63,2.43,4.32,55.85-5.24,66.86l-31.56-.91-.08-183.65c5.42-4.91,12.15-6.55,19.05-7.35,20.39-2.37,78.59-2.41,95.91,5.54,33.16,15.23,39.68,63.04,24.61,94.29-8.47,17.55-36.26,21.63-19.29,46.64,8.07,11.9,20.76,8.68,32.77,9.64ZM424.83,884.06c-13.31,4.22-13.8,42.63-.24,50.96,7.95,4.88,40.98,1.85,51.53.17,20.63-3.29,23.6-36.28,7.16-46.89-8.93-5.76-48.75-7.31-58.45-4.24Z"/>
      <path d="M1706.06,1031.53c-.23,1.49-3.09,7.29-4.87,7.74l-29.82-.09c4.43-28.09-13.11-8.29-28.3-3.98-85.57,24.29-130.87-59.47-102.29-138.58,13.53-37.45,42.93-52.03,79.94-53.02,30.67-.82,81.99,19.17,37.07,48.7-12.86-3.78-19.47-11.45-34.05-12.09-91.12-4.01-58.48,171.18,31.27,106.54,38.01-27.37-13.62-16.82-30.05-19.14-4.37-3.2-5.08-30.95,1.63-35.3h60.69c6.48,0,18.79,20.04,18.79,25.95,0,20.69,2.88,54.66,0,73.27Z"/>
      <path d="M615.77,847.62c70.71-10.16,111.69,32.91,104.72,107.56-11.46,122.69-187.74,118.37-169.75-29.72,4.85-39.95,25.29-72.13,65.04-77.84ZM624.37,884.21c-46.45,8.33-46.02,109.15-2.9,117.58,75.55,14.77,81.09-131.6,2.9-117.58Z"/>
      <path d="M2034.8,678.45c4.18,2.63,12.09,61.5-2.63,67.93h-215.96c-6.68,0-12.49-16.35-13.43-23.26-7.42-54.63-5.78-215.51-.05-272.31.78-7.74,4.07-28.43,13.48-28.43h215.96l7.07,8.66c1.51,4.74.68,9.75,1.1,14.58,1.13,12.97,2.6,31.41-8.17,39.46h-131.68c-33.19,0-49.22,59.16,5.6,67.6,39.82,6.13,105.16-21.1,102.87,34.4-2.39,58.04-95.76,8.46-129.86,38.78-16.94,15.05-9.53,52.57,16.12,52.57h139.58Z"/>
      <path d="M882.82,1038.66c-5.26-13.27-8.72-27.58-23.51-31.64-12.04-3.3-63-3.19-75.98-.73-22.74,4.32-20.54,27.13-28.79,30.84-14.81,6.67-38.69,6.96-32.68-16.39,4.78-18.57,30.01-68.96,39.53-89.54,9.17-19.84,23.65-57.03,34.71-73.24,11.36-16.65,30.38-14.53,41.3,1.24l78.34,164.6c7.37,22.4-19.77,14.64-32.92,14.84ZM790,968.81c9.38,3.66,59.38,7.19,60.23-4.39l-30.33-53.33c-9.22-2.07-34.41,52.1-29.9,57.72Z"/>
      <path d="M1338.33,418.21c17.54-2.51,38.19,2.04,47.84,18.01l143.38,291.97c6.57,24.23-47.65,22.12-58.4,15.65-17.69-10.65-7.03-50.33-60.26-55.18-28.55-2.6-132.92-4.74-150.59,13.09-27.39,27.65-14.94,64.76-87.11,39.68-6.16-8.39,4.07-26.39,7.42-35.15,34.62-90.59,92.1-182.59,131.36-272.04,4.3-10.12,15.99-14.55,26.36-16.03ZM1407.87,626.01c5.33-7.71-41.87-103.58-60.24-99.1-11.42,12.31-55.21,82.55-48.03,94.15,10.52,16.98,88.5,11.65,108.28,4.95Z"/>
      <path d="M201.8,553.03c7.33,21.55,7.31,41.2,0,62.71h-102.71c-26.6,0-38.26,35.48-22.39,56.22l157.04,8.77c7.69,5.31,9.63,57.27-2.97,65.65H14.81c-25.47,0-8.03-98.59-7.65-117.33,1.1-54.83-11.4-129.23-5.63-178.03,1.39-11.75,3.91-20.66,13.28-28.64h215.96l7.07,8.66c1.51,4.74.68,9.75,1.1,14.58,1.13,12.97,2.6,31.41-8.17,39.46H99.08c-23.98,0-41.36,38.22-23.86,55.04,1.72,1.65,27.53,12.9,29.12,12.9h97.44Z"/>
      <path d="M694.29,485.1c-1.7.3-22.71,11.8-24.1,13.92-6.09,10.79-7.2,33.77,1.64,42.36,1.08,1.05,26.22,11.65,27.73,11.65h97.44c4.41,19.24,13.08,46.83-2.63,62.71h-100.08c-26.6,0-38.26,35.48-22.39,56.22l157.04,8.77,4.93,65.65h-223.86c-7.52-4.59-7.27-10.42-8.17-18.02-7.23-61.09,1.63-145,.49-209.51-.55-30.71-17.57-68.38,7.68-96.46h215.96l7.07,8.66c1.51,4.74.68,9.75,1.1,14.58.67,7.66,1.41,39.46-8.17,39.46-39.69,4.82-94.11-6.54-131.68,0Z"/>
      <path d="M946.96,937.36c-17.73-20.31-12.28-54.39,6.23-72.19,24.61-23.67,68.16-24.27,97.87-11.83,4.92,2.06,23.28,12.57,24.65,16.89,2.4,7.61-8.5,21.13-14.22,23.96-10.37,5.12-15.17-4.96-23.92-8.28-16.71-6.34-55.38-10.72-61.57,12.77-8.13,30.87,56.73,26.65,74.04,32.06,49.51,15.46,48.82,77.14,5.44,100.49-31.71,17.07-95.37,11.94-120.85-15.19-13.28-14.14,10.61-32.29,17.1-30.62,6.1,1.58,15.86,9.7,23.15,12.5,19.53,7.49,81.48,18.02,78.07-18.16-1.99-21.14-55.6-17.44-73.62-23.18-9.19-2.93-26.04-11.95-32.38-19.22Z"/>
      <path d="M932.6,423.6c31.51,55.08,51.86,121.07,84.73,174.74,28.95,47.26,35.01,42.09,61.56-3.41,23.21-39.78,49.22-137.92,76-164.98,15.03-15.19,53.05-4.53,74.01-7.53,1.06,5.79-.71,10.46-2.41,15.85-16.15,51.05-67.41,147.82-93.13,200.26-9.36,19.09-45.42,98.01-58.44,104.02-17.2,7.94-54.52,7.84-66.51-9.94l-148.19-310.18,72.37,1.18Z"/>
      <path d="M359.81,422.39v243c0,3.91,12.79,11.83,18.57,12.93,37.27,7.08,147.52-9.99,172.61,5.23,8.89,5.39,11.31,44.38,8.12,54.19l-7.05,8.65h-247.56c-6.68,0-12.49-16.35-13.43-23.26-7.25-53.42-6.08-227.66.8-282.07,4.25-33.54,43.39-20.61,67.93-18.67Z"/>
      <path d="M1760.91,422.39c4,12.67,11.41,52.73.34,60.43-31.49,6.17-71.01-5.73-94.3,21.41l-1.58,233.59-7.9,7.83-51.99-4.44c-20.06-23.39-.5-201.2-8.53-242.37-5.79-16.9-72.42-11.26-89.19-16.03l-4.93-60.43h258.1Z"/>
      <path d="M1099.12,849.88h140.17c6.81,4.67,5.92,32.14,1.63,35.3-9.3.82-52.21.75-52.21,15.07v134.33l-4.79,4.1c-2.62.87-5.4.39-8.07.64-7.17.66-17.37,1.51-21.83-4.73v-137.38c-13.04-15.64-34.91-8.13-52.21-12.02l-2.71-35.3Z"/>
      <path d="M1301.44,849.88v184.7c-18.85,9.14-35.52,10.65-37.71-15.12-4.33-50.95,2.88-109.55.89-161.3,2.76-16.05,25.6-9.33,36.82-8.29Z"/>
    </g>
    <g>
      <g>
        <path d="M930.61,49.37c5.02,4.05,33.15,33.9,46.12,43.38,3.08,2.25,19.48,14.26,20.68,14.88,5.57,2.9,30.24,20.5,36.3,24.91,8.72,6.34,25.95,12.82,35.37,18.47,5.34,3.21,45.78,22.76,55.41,26.71,19.97,8.19,86.07,49.65,81.76,62.56-4.29,12.83-12.84,7.44-24.53,8.2-19.02,1.23-58,3.19-60.74,2.8-29.14-4.09-83.44-24.71-98.44-43.86-5.11-6.53-6.69-14.62-10.99-20.48-24.81-33.81-58.91-64.22-85.27-97.5-7.02-8.86-22.64-30.38-31.6-37.56-1.48-1.18-12.07-13.18-15.06-16.44-1.44-1.57-25.89-21.65-37.17-22.99-3.44-.41-12.33,2.42-13.97-1.52-3.31-7.93,15.95-9.03,21.11-9.71,5.6-.73,8.2-2.02,16.74-.64,1.18.19,19.19,7.72,20,8.31,4.49,3.22,38.67,35.93,44.27,40.46Z"/>
        <path d="M813.54,81.44c5.44,9,10.4,17.5,4.01,26.43-2.43,3.4-56.35,41.31-70.47,49.93-34.74,21.19-62.19,45.67-104.55,60.8-3.92,1.4-26.21,10.89-34.22,12.19-23.15,3.78-46.34,3.05-27.72-14.5,3.49-1.61,8.76-3.29,13.93-3.89,2.73-.32,17.53-7.39,20.9-9.15,53.87-28.13,105.01-76.95,139.28-118.11,1.65-1.99,10.01-13.53,10.67-15.09,3.01-7.13-12.5-10.77-8.5-19.17.09-.19.32-.34.59-.35,7.93-.25,49.13,19.43,56.07,30.91Z"/>
      </g>
      <g>
        <path d="M1277.13,104.24c3.46,2.79,22.86,23.37,31.8,29.91,2.12,1.55,13.43,9.83,14.26,10.26,3.84,2,20.85,14.14,25.02,17.17,6.01,4.37,17.89,8.84,24.39,12.73,3.68,2.21,31.56,15.69,38.2,18.41,13.76,5.65,59.34,34.23,56.37,43.13-2.96,8.85-8.85,5.13-16.91,5.65-13.12.85-39.99,2.2-41.88,1.93-20.09-2.82-57.53-17.04-67.87-30.24-3.53-4.5-4.61-10.08-7.58-14.12-17.11-23.31-40.61-44.28-58.79-67.22-4.84-6.11-15.61-20.94-21.79-25.89-1.02-.81-8.32-9.09-10.38-11.33-1-1.08-17.85-14.92-25.63-15.85-2.37-.28-8.5,1.67-9.63-1.04-2.28-5.47,11-6.23,14.55-6.69,3.86-.5,5.65-1.39,11.54-.44.81.13,13.23,5.32,13.79,5.73,3.1,2.22,26.66,24.77,30.52,27.89Z"/>
        <path d="M1208.12,115.37c3.75,6.21,7.17,12.06,2.77,18.22-1.68,2.34-38.85,28.48-48.58,34.42-23.95,14.61-42.88,31.49-72.08,41.92-2.7.97-18.07,7.51-23.59,8.41-15.96,2.6-31.95,2.1-19.11-10,2.41-1.11,6.04-2.26,9.61-2.68,1.88-.22,12.09-5.1,14.41-6.31,37.14-19.4,72.4-53.05,96.02-81.43,1.14-1.37,6.9-9.33,7.35-10.4,2.08-4.92-8.62-7.42-5.86-13.22.06-.13.22-.23.41-.24,5.47-.17,33.87,13.39,38.66,21.31Z"/>
      </g>
    </g>
  </g>
</svg>